<svg id="visual" viewBox="0 0 900 600" width="900" height="600" xmlns="http://www.w3.org/2000/svg" xmlns:xlink="http://www.w3.org/1999/xlink" version="1.1"><rect x="0" y="0" width="900" height="600" fill="#002233"></rect><path d="M281 0L261.2 14.3C241.3 28.7 201.7 57.3 206.5 85.8C211.3 114.3 260.7 142.7 261.8 171.2C263 199.7 216 228.3 186.3 257C156.7 285.7 144.3 314.3 164.7 343C185 371.7 238 400.3 262.5 428.8C287 457.3 283 485.7 267.2 514.2C251.3 542.7 223.7 571.3 209.8 585.7L196 600L0 600L0 585.7C0 571.3 0 542.7 0 514.2C0 485.7 0 457.3 0 428.8C0 400.3 0 371.7 0 343C0 314.3 0 285.7 0 257C0 228.3 0 199.7 0 171.2C0 142.7 0 114.3 0 85.8C0 57.3 0 28.7 0 14.3L0 0Z" fill="#0066FF" stroke-linecap="round" stroke-linejoin="miter"></path></svg>